<svg xmlns="http://www.w3.org/2000/svg" xmlns:xlink="http://www.w3.org/1999/xlink" width="320" height="200" viewBox="0 0 320 200">
    <defs>
        <path id="a" d="M0 0h320v200H0z"/>
    </defs>
    <g fill="none" fill-rule="evenodd">
        <mask id="b" fill="#fff">
            <use xlink:href="#a"/>
        </mask>
        <use fill="#F4F5F6" fill-rule="nonzero" xlink:href="#a"/>
        <path fill="#FFF" fill-rule="nonzero" d="M47.173 29h-93.346L-62 70H63L47.173 29zM94 153.31V188H65v-26.765C48.266 163.745 26.22 165-1.137 165c-26.5 0-47.788-1.177-63.863-3.532V188h-29v-34.683l-.118-.067L-100 71h18.561l4.632-12H-94V47h21.825l13.508-35H58.667l13.508 35H94v12H76.807l4.632 12H100l-5.882 82.25-.118.06zm-171.25-12.623C-63.322 144.623-37.495 147-1.137 147c36.873 0 63.372-2.414 78.407-6.591L81 88H-81l3.75 52.687zM-53 124c-6.627 0-12-5.373-12-12s5.373-12 12-12 12 5.373 12 12-5.373 12-12 12zm106 0c-6.627 0-12-5.373-12-12s5.373-12 12-12 12 5.373 12 12-5.373 12-12 12z" mask="url(#b)"/>
    </g>
</svg>
