<svg xmlns="http://www.w3.org/2000/svg" width="13" height="15" viewBox="0 0 13 15">
    <path fill="#FF5165" fill-rule="evenodd" d="M7.207 14.168a1.337 1.337 0 0 1-1.02.457c-.398 0-.738-.146-1.019-.44a1.448 1.448 0 0 1-.422-1.037H7.63c0 .399-.14.739-.422 1.02zm3.727-3.938l1.441 1.477v.738H0v-.738l1.441-1.477V6.223A4.54 4.54 0 0 1 2.48 3.287a4.73 4.73 0 0 1 2.619-1.67V1.09c0-.305.1-.563.298-.774.2-.21.463-.316.792-.316.328 0 .591.105.79.316.2.211.3.47.3.774v.527a4.73 4.73 0 0 1 2.618 1.67 4.54 4.54 0 0 1 1.038 2.936v4.007z"/>
</svg>
