<svg xmlns="http://www.w3.org/2000/svg" width="12" height="12" viewBox="0 0 12 12">
    <path fill="#566F7E" fill-rule="nonzero" d="M7.614 5.448l2.883-2.883v3.07a.75.75 0 0 0 .752.75.751.751 0 0 0 .751-.751V.75A.751.751 0 0 0 11.249 0H6.366a.751.751 0 0 0 0 1.503h3.069L6.552 4.386a4.185 4.185 0 0 0-5.33.482 4.184 4.184 0 0 0 0 5.91 4.184 4.184 0 0 0 5.91 0 4.185 4.185 0 0 0 .482-5.33zm-5.33 4.267a2.68 2.68 0 0 1 0-3.785 2.68 2.68 0 0 1 3.785 0 2.68 2.68 0 0 1 0 3.785 2.68 2.68 0 0 1-3.785 0z"/>
</svg>
