<svg xmlns="http://www.w3.org/2000/svg" width="34" height="30" viewBox="0 0 34 30">
    <path fill="#FFF" fill-rule="nonzero" d="M24.94 3H9.06l-2.692 7h21.264L24.94 3zM33 24v6h-5v-4.633c-2.839.422-6.57.633-11.193.633-4.478 0-8.08-.198-10.807-.594V30H1v-6L0 10h3.154l.77-2H1V6h3.692L7 0h20l2.308 6H33v2h-2.923l.77 2H34l-1 14zM3.86 21.93c2.369.667 6.762 1.07 12.947 1.07 6.272 0 10.78-.41 13.337-1.117L30.778 13H3.222l.638 8.93zM8 19a2 2 0 1 1 0-4 2 2 0 0 1 0 4zm18 0a2 2 0 1 1 0-4 2 2 0 0 1 0 4z"/>
</svg>
