<svg xmlns="http://www.w3.org/2000/svg" width="9" height="15" viewBox="0 0 9 15">
    <path fill="#566F7E" fill-rule="nonzero" d="M3.405 8.233v2.98H1.73a.746.746 0 0 0 0 1.492h1.674v1.339a.746.746 0 0 0 1.492 0v-1.339h1.674a.746.746 0 0 0 0-1.492H4.897v-2.98a4.157 4.157 0 0 0 3.405-4.082A4.155 4.155 0 0 0 4.15 0 4.156 4.156 0 0 0 0 4.15a4.157 4.157 0 0 0 3.405 4.083zm.746-6.74A2.661 2.661 0 0 1 6.809 4.15a2.661 2.661 0 0 1-2.658 2.658 2.661 2.661 0 0 1-2.658-2.658A2.661 2.661 0 0 1 4.15 1.493z"/>
</svg>
