<svg xmlns="http://www.w3.org/2000/svg" width="24" height="24" viewBox="0 0 24 24">
    <path fill="#566F7E" fill-rule="nonzero" d="M10.542 0a.522.522 0 0 0-.515.437L9.52 3.544a8.753 8.753 0 0 0-1.74.716L5.214 2.428a.522.522 0 0 0-.671.055l-2.03 2.028a.522.522 0 0 0-.058.669L4.26 7.76a8.827 8.827 0 0 0-.73 1.753l-3.094.514a.522.522 0 0 0-.435.515v2.87c0 .252.18.47.43.514l3.096.548c.18.615.424 1.2.727 1.753l-1.826 2.555a.522.522 0 0 0 .055.671l2.03 2.03c.178.179.46.204.667.06l2.585-1.81c.55.3 1.133.54 1.746.72l.516 3.11c.042.252.26.437.515.437h2.87c.253 0 .47-.181.514-.431l.553-3.123a8.792 8.792 0 0 0 1.738-.729l2.602 1.826c.208.146.49.121.669-.058l2.029-2.03a.522.522 0 0 0 .054-.674l-1.856-2.577a8.749 8.749 0 0 0 .713-1.727l3.14-.55a.522.522 0 0 0 .431-.515v-2.87a.522.522 0 0 0-.437-.514l-3.135-.512a8.81 8.81 0 0 0-.715-1.726l1.83-2.607a.522.522 0 0 0-.058-.669l-2.03-2.029a.522.522 0 0 0-.673-.054L16.21 4.28a8.745 8.745 0 0 0-1.739-.725L13.926.432A.522.522 0 0 0 13.411 0h-2.87zm.444 1.043h1.987l.52 2.967a.522.522 0 0 0 .387.417 7.72 7.72 0 0 1 2.134.887c.179.109.405.1.575-.022l2.441-1.755 1.405 1.405-1.738 2.477a.522.522 0 0 0-.02.57c.392.652.69 1.364.879 2.123.05.202.216.354.422.388l2.978.487v1.987l-2.984.524a.522.522 0 0 0-.416.39 7.72 7.72 0 0 1-.877 2.122.522.522 0 0 0 .023.574l1.763 2.446-1.405 1.406-2.473-1.735a.522.522 0 0 0-.571-.018 7.77 7.77 0 0 1-2.129.891c-.199.05-.35.213-.386.415l-.527 2.968h-1.99l-.491-2.955a.522.522 0 0 0-.39-.42 7.775 7.775 0 0 1-2.141-.885.522.522 0 0 0-.568.02l-2.454 1.72-1.406-1.409 1.734-2.424a.522.522 0 0 0 .022-.574c-.4-.66-.702-1.38-.893-2.147a.522.522 0 0 0-.415-.387l-2.938-.522v-1.99l2.936-.488a.522.522 0 0 0 .421-.388c.193-.77.495-1.49.893-2.148.107-.177.1-.4-.019-.57L3.561 4.94 4.97 3.534 7.4 5.272c.17.121.394.13.572.023a7.737 7.737 0 0 1 2.14-.88.522.522 0 0 0 .391-.422l.482-2.95zM12 7.826A4.182 4.182 0 0 0 7.826 12 4.182 4.182 0 0 0 12 16.174 4.182 4.182 0 0 0 16.174 12 4.182 4.182 0 0 0 12 7.826zm0 1.044A3.123 3.123 0 0 1 15.13 12 3.123 3.123 0 0 1 12 15.13 3.123 3.123 0 0 1 8.87 12 3.123 3.123 0 0 1 12 8.87z"/>
</svg>
