<svg xmlns="http://www.w3.org/2000/svg" width="35" height="36" viewBox="0 0 35 36">
    <path fill="#FFF" fill-rule="nonzero" d="M11.945 3c1.69 2.584 2.81 6.586 3.02 11H17v1h-2.004c.003.166.004.333.004.5V33h16.015c.065-6.708.097-12.541.097-17.5 0-3.634-.602-6.98-1.62-9.418C28.64 4.046 27.64 3 27.011 3H11.945zM8.18.061V0h18.832c4.147 0 7.1 7.063 7.1 15.5 0 5.332-.037 11.67-.112 19.015L33.985 36H12v-5H8v-.033a3.796 3.796 0 0 1-.5.033C3.204 31 0 23.754 0 15.5S3.204 0 7.5 0c.23 0 .456.02.68.061zM12 28v-.085l-.055.085H12zm8-14h3v1h-3v-1zm6 0h3v1h-3v-1zm-14 1.5C12 8.722 9.47 3 7.5 3 5.53 3 3 8.722 3 15.5S5.53 28 7.5 28c1.97 0 4.5-5.722 4.5-12.5zm-2.366.25c0 2.761-.896 5-2 5-1.105 0-2-2.239-2-5s.895-5 2-5c1.104 0 2 2.239 2 5z"/>
</svg>
